<svg width="349" height="436" viewBox="0 0 349 436" fill="none" xmlns="http://www.w3.org/2000/svg">
<path d="M210.947 160.878C210.947 159.742 211.199 156.861 211.635 155.333C212.305 152.985 214.856 150.206 215.805 148.827C217.128 146.904 218.391 145.091 219.981 142.347C221.105 140.405 222.544 138.839 223.536 137.5C225.342 135.061 227.638 131.792 231.591 124.873C233.419 121.674 234.264 119.227 234.686 117.589C235.398 114.823 236.07 113.178 236.972 109.14C237.528 106.652 237.387 105.222 237.228 99.1531C237.053 92.4688 235.185 90.4739 234.402 88.7342C233.562 86.8711 232.517 85.4292 231.701 83.9879C230.874 82.527 229.814 80.6813 228.272 78.6542C226.165 75.8828 224.469 74.1627 223.144 73.1605C221.418 71.8563 219.181 70.7956 210.999 67.7251C204.045 65.1155 201.569 65.1659 197.794 64.8827C191.938 64.4433 186.987 65.034 185.134 65.3625C183.35 65.6789 179.868 67.1537 177.543 68.3255C175.929 69.1389 174.822 70.3895 165.509 77.2256C163.544 78.668 163.275 78.9483 163.025 79.5796C161.896 82.4269 162.063 84.1811 161.958 87.9081C161.772 94.5059 161.991 99.4375 162.273 100.82C163.221 105.475 163.563 113.209 164.128 116.484C164.433 118.25 165.985 122.361 166.928 124.94C167.553 126.651 168.568 129.119 169.251 130.616C170.013 132.291 172.066 137.014 173.545 140.552C174.452 142.72 174.99 144.635 175.767 146.894C176.864 150.084 177.331 151.737 177.636 153.395C177.922 154.943 178.256 156.782 178.515 158.587C178.602 159.195 178.605 160.022 178.784 160.464C179.413 162.016 183.863 162.179 186.23 162.667C187.712 162.973 189.061 162.975 196.239 162.993C198.067 162.997 198.76 162.838 199.687 162.778C200.94 162.696 205.934 161.783 212.554 160.29C214.908 159.759 215.232 159.737 215.408 159.91C215.583 160.083 215.603 160.463 215.451 160.812C214.803 162.291 213.26 163.102 210.596 165.19C207.787 167.391 204.74 168.023 202.677 168.332C197.709 169.073 193.672 167.608 190.416 167.065C188.961 166.822 187.625 166.698 185.265 166.607C183.236 166.528 181.028 166.757 179.646 167.301C177.353 168.204 179.999 171.379 180.739 172.739C181.676 174.46 183.037 175.27 184.548 176.021C187.004 177.24 189.508 177.393 190.967 177.451C193 177.533 195.709 177.583 197.614 176.973C199.888 176.245 203.453 177.036 205.516 177.753C205.957 177.906 206.255 178.03 206.488 178.231C206.722 178.432 206.881 178.708 206.895 179.055C206.974 180.949 205.115 182.638 204.282 183.735C203.463 184.813 202.095 185.455 201.195 186.826C200.77 187.474 200.02 187.657 199.178 187.771C196.628 188.115 194.74 186.668 193.156 185.613C191.81 184.717 191.359 182.306 190.473 180.732C189.581 179.149 188.894 178.349 188.688 178.002C188.185 177.155 189.298 181.062 190.095 182.718C190.701 183.976 192.42 184.189 195.209 184.311C197.012 184.39 198.336 184.977 199.42 184.793C200.213 184.658 200.568 183.475 201.175 182.734C201.656 182.147 201.645 181.297 201.453 180.227C201.173 178.665 200.253 177.625 199.731 177.129C198.537 175.994 193.59 176.198 189.952 176.525C187.142 176.778 185.262 174.525 183.663 172.902C182.532 171.754 181.554 171.162 181.068 170.665C180.624 170.211 180.775 169.246 180.878 168.37C181.082 166.625 184.129 165.816 186.155 164.642C189.138 162.914 192.85 163.999 194.271 163.48C196.515 162.661 202.197 161.263 207.233 160.856C208.856 160.725 209.306 162.896 209.936 163.199C210.667 163.551 211.652 163.115 212.545 162.586C213.956 161.748 214.199 160.258 214.72 158.507C214.847 158.08 214.815 157.701 214.674 157.367C212.944 153.254 202.358 160.955 200.856 162.063C199.054 163.393 194.703 163.126 191.589 162.874C189.378 162.695 187.65 162.324 182.981 162.078C182.007 162.026 181.753 161.741 181.577 161.468C180.867 160.364 180.062 159.283 179.856 155.877C179.702 153.332 180.074 150.6 179.854 148.35C179.689 146.657 179.237 144.695 178.565 142.284C178.15 140.793 177.125 139.308 176.341 137.726C175.498 136.027 174.569 134.928 173.642 133.521C172.437 131.693 171.363 130.139 170.17 127.967C167.837 123.72 165.501 117.04 164.231 113.558C163.694 112.084 162.774 109.802 161.913 105.648C160.646 99.5366 161.561 92.3522 161.802 90.4673C162.043 88.5835 163.461 84.7325 164.843 81.7308C165.832 79.5837 166.883 77.9344 168.591 75.9593C170.927 73.2576 172.919 72.438 174.4 71.7627C175.046 71.4682 175.679 71.3111 179.127 70.2882C182.274 69.3546 188.304 67.7525 191.822 66.9051C196.14 65.8654 198.34 66.2418 201.151 66.6143C206.436 67.3148 209.039 67.4536 212.756 68.2026C216.396 68.936 219.612 71.838 221.628 73.4462C223.853 75.221 225.254 76.5493 226.157 77.867C227.237 79.443 228.477 82.0312 230.55 90.854C231.582 95.2499 232.18 99.4031 232.019 103.439C231.808 108.755 230.61 110.551 230.125 112.217C229.556 114.174 228.956 115.55 228.367 117.252C227.752 119.03 226.331 121.855 224.963 124.164C224.215 125.427 223.279 127.356 222.457 129.06C221.715 130.6 221.022 132.625 218.772 137.038C216.427 141.635 215.532 143.543 215.089 145.162C214.612 146.904 214.419 148.472 214.09 150.071C213.679 152.069 213.209 153.865 213.006 155.34C212.813 156.746 212.626 158.823 212.495 161.195C212.45 162.002 208.184 162.444 201.606 162.628C198.844 162.706 197.817 162.842 194.334 162.859C186.397 162.897 180.833 162.907 180.183 162.783C179.555 162.664 179.258 160.398 179.258 156.976C179.258 154.867 179.449 150.688 179.396 145.162C179.359 141.221 177.857 139.134 176.932 137.983C176.027 136.858 174.767 135.485 173.666 134.235C172.706 133.145 171.344 131.433 169.777 129.101C168.518 127.228 167.315 125.34 166.124 121.574C164.284 115.754 163.979 113.181 162.839 108.784C162.343 106.871 162.318 105.243 162.187 96.3762C162.143 93.4137 162.536 91.5019 163.012 89.4007C163.428 87.5611 164.528 85.4963 165.709 83.1025C166.758 80.9747 168.14 78.8243 169.564 77.0487C171.166 75.0512 174.475 73.0558 176.412 71.8539C178.45 70.5895 181.338 69.7224 183.983 68.9338C187.639 67.8436 190.886 67.8511 195.144 67.159C198.249 66.6545 204.541 66.6317 208.049 66.7392C209.712 66.7902 213.285 68.5606 215.895 70.1578C218.494 71.7489 219.582 73.1905 221.26 74.8779C222.957 76.5846 224.057 77.8661 225.612 79.4552C227.556 81.4424 228.266 83.016 229.702 85.2555C231.398 87.9017 232.086 90.0732 232.472 91.4631C232.665 92.1572 233.306 94.0046 234.232 96.9644C235.106 99.7559 235.203 103.468 234.942 108.327C234.636 114.03 233.274 117.495 232.969 118.566C232.571 119.965 230.891 123.378 228.522 127.716C225.844 132.62 222.044 136.977 220.465 139.362C219.098 141.428 218.28 143.714 217.834 145.321C217.356 147.046 216.212 149.033 215.488 150.948C214.942 152.394 214.379 153.565 213.814 154.915C213.251 156.261 212.885 158.429 212.487 160.428C211.77 164.025 212.141 165.954 212.285 166.476C212.427 166.994 210.457 167.309 208.474 167.689C207.366 167.902 202.527 167.938 195.39 167.933C190.931 167.931 189.223 167.592 182.272 167.71C180.942 167.733 181.004 168.188 180.929 168.487C180.776 169.103 180.415 169.759 180.437 170.589C180.458 171.374 180.875 172.042 181.237 172.591C182.143 173.962 184.382 174.033 185.416 175.294C185.989 175.992 186.771 176.535 187.591 176.917C190.336 178.2 195.737 177.53 197.618 178.164C200.914 179.275 204.613 180.134 206.738 180.207C208.488 180.267 208.232 177.189 208.911 175.803C209.527 174.544 210.061 173.202 210.161 172.076C210.254 171.033 208.953 175.486 208.186 177.465C207.915 178.164 207.206 178.541 206.427 178.847C203.27 180.088 199.283 178.651 197.385 178.336C194.547 177.866 193.085 178.011 191.749 177.857C191.105 177.783 190.118 177.683 188.996 177.84C186.782 178.15 188.155 183.342 188.812 184.924C189.374 186.278 190.168 187.327 190.673 187.955C192.399 190.104 197.146 188.904 197.769 188.896C199.492 188.874 199.939 186.545 200.819 185.275C201.771 183.903 202.724 183.036 203.643 181.731C204.113 181.063 204.001 180.215 203.903 179.864C203.613 178.823 202.959 182.9 202.44 184.558C202.015 185.915 200.522 187.389 198.98 188.199C197.652 188.898 195.352 186.747 193.481 185.312C192.332 184.432 191.592 183.08 190.583 182.173C190.039 181.683 189.449 181.31 189.184 180.653C188.688 179.423 188.725 178.343 188.387 177.791C187.682 176.642 185.998 177.599 185.069 177.18C181.906 175.754 181.281 172.728 179.463 171.561C178.236 170.773 178.555 166.893 179.03 164.648C179.176 163.957 179.886 163.372 180.579 162.757C181.166 162.236 182.218 162.04 183.497 162.072C185.179 162.115 186.316 163.192 187.67 163.438C188.002 163.499 188.316 163.557 188.228 163.693C187.847 164.277 186.715 164.26 185.911 164.163C184.26 163.964 182.914 162.249 181.66 161.222C181.02 160.698 180.672 160.018 180.593 159.341C180.515 158.678 180.569 158.012 181.075 157.124C182.992 153.757 187.923 153.172 192.481 151.94C198.123 150.416 199.608 152.412 204.663 152.647C206.061 152.712 206.665 152.996 207.244 153.384C208.433 154.181 208.926 155.743 209.424 156.77C209.919 157.793 206.979 155.489 204.32 154.774C202.135 154.186 198.249 154.278 194.747 154.784C192.547 155.103 186.168 155.681 182.387 156.575C181.989 156.67 181.822 157.22 182.466 156.875C187.017 154.432 188.864 153.304 190.515 152.942C192.861 152.427 196.689 152.711 200.073 153.296C201.989 153.628 203.174 155.175 205.025 156.178C206.347 156.894 207.552 157.46 208.419 158.111C209.354 158.813 205.052 157.128 203.34 156.385C202.674 156.096 201.062 156.119 199.106 156.193C198.359 156.221 198.134 156.551 198.016 157.083C197.897 157.616 197.897 158.422 198.014 158.946C198.195 159.755 198.596 156.13 198.491 150.096C198.441 147.24 198.026 143.273 197.929 137.989C197.861 134.227 197.798 131.032 198.322 128.993C199.256 125.357 198.857 123.687 199.501 118.094C199.882 114.783 200.665 113.595 201.494 112.228C202.394 110.743 205.23 111.002 206.956 110.819C207.291 110.783 207.623 110.703 207.959 110.78C210.301 111.32 209.681 116.655 209.531 117.352C209.251 118.647 206.365 118.451 204.477 119.235C203.159 119.782 202.217 121.133 201.176 122.413C199.777 124.133 198.17 124.787 196.132 125.2C191.856 126.068 189.009 125.984 187.124 125.607C185.703 125.322 184.549 124.125 183.464 123.235C182.243 122.234 181.624 120.343 181.03 119.045C180.375 117.614 180.192 114.864 180.751 113.079C180.853 112.753 181.413 112.801 181.806 112.788C183.727 112.725 185.131 116.068 185.856 117.536C187.46 120.782 188.897 126.033 189.413 128.476C190.053 131.51 190.726 134.257 191.133 136.08C191.521 137.819 192.509 138.519 193.071 138.966C195.894 141.213 193.187 149.258 192.944 151.024C192.796 152.096 192.69 154.711 192.515 157.339C192.488 157.748 191.785 155.26 191.578 150.358C191.417 146.555 191.508 140.068 191.35 136.361C191.091 130.275 189.402 126.453 188.891 123.618C188.618 122.109 188.236 120.788 187.375 119.584C186.429 118.26 184.566 117.622 183.587 116.488C183.349 116.212 183.214 115.887 182.951 115.736C182.689 115.584 182.339 115.587 182.03 115.721C181.397 115.995 180.985 116.674 180.627 117.297C180.246 117.963 180.288 119.229 180.33 120.57C180.38 122.153 182.327 122.946 183.792 123.84C188.337 126.612 197.87 124.265 198.462 123.946C199.641 123.31 205.402 118.529 208.418 114.88C208.945 114.242 208.452 112.771 208.291 112.073C208.13 111.375 207.808 111.285 207.478 111.211C206.824 111.063 205.524 111.023 203.914 111.119C202.193 111.221 201.622 113.268 200.417 116.152C199.21 119.04 197.897 122.368 197.1 124.671C196.594 126.13 195.954 127.548 195.864 138.565C195.836 141.965 196.211 143.527 196.584 144.917C196.942 146.255 197.803 148.093 197.551 150.107C197.402 153.202 197.464 157.626 197.743 158.382C197.893 158.735 198.06 159.029 198.232 159.409" stroke="#FE9E62" stroke-width="2" stroke-linecap="round"/>
<path d="M233.582 18.5045C232.138 16.8835 226.883 11.9186 221.971 9.15924C215.563 5.55955 199.607 5.83289 187.656 7.46665C182.848 8.12392 179.191 13.8919 175.031 19.3555C172.665 22.4634 171.546 25.6364 170.53 27.2021C167.958 31.1652 149.563 25.8477 138.39 26.9111C133.29 27.3965 129.04 33.0914 125.243 37.151C120.213 42.5281 119.806 47.532 118.871 49.0263C115.624 54.2163 107.383 47.0564 102.905 46.7584C96.5692 46.3366 91.6719 50.9721 88.5335 54.4268C84.3317 59.0519 82.7272 68.5162 80.2304 77.0708C77.436 86.6449 79.3584 99.4676 81.5782 105.04C83.7357 110.457 90.0546 113.89 94.1941 116.26C95.141 116.802 96.1188 117.305 96.4073 118.133C97.8272 122.205 93.9099 127.413 93.3026 139.416C91.9828 165.502 95.0889 170.951 98.3136 176.919C100.897 181.702 105.774 183.639 109.328 185.473C111.233 186.457 113.324 185.37 114.945 184.608C122.563 181.027 117.759 217.432 118.723 220.47C120.291 225.409 126.339 225.176 146.243 224.989C154.075 224.916 156.371 221.395 158.35 221.52C165.185 221.953 170.624 239.069 177.684 243.939C183.711 248.097 192.083 247.417 198.04 247.155C201.278 247.012 203.347 244.665 205.606 242.455C208.942 239.194 208.711 232.665 208.995 226.836C209.079 225.11 209.053 222.836 209.602 222.4C214.644 218.397 218.719 234.358 222.773 239.282C225.726 242.867 230.415 245.107 234.73 246.658C237.757 247.746 246.556 245.504 259.893 239.298C278.554 230.616 276.514 217.29 281.354 206.932C292.711 182.63 312.816 202.094 320.045 198.008C324.908 195.259 327.994 184.659 329.969 174.065C331.467 166.03 327.723 161.3 324.695 157.47C320.58 152.263 314.483 150.993 310.213 149.014C302.883 145.617 312.308 120.115 309.807 107.672C308.476 101.053 301.486 98.6843 295.151 96.7604C292.992 96.1049 290.139 96.4968 289.311 96.2632C286.182 95.3806 296.605 85.7531 299.667 78.5353C302.017 72.9958 301.619 61.1683 300.176 53.4493C299.064 47.4989 292.994 43.4088 289.355 40.9493C283.816 37.2061 276.275 36.9243 271.553 37.965C268.531 38.6311 268.524 28.338 265.901 22.9489C262.38 15.7149 258.483 12.4861 255.101 9.57599C251.428 6.416 241.47 6.81361 236.667 9.59507C232.9 11.7765 230.661 15.2871 228.861 15.7182C223.587 16.9814 221.146 8.39142 213.547 4.47117C207.185 1.18913 194.995 5.17305 187.632 8.01445C182.616 9.95031 179.11 16.1751 177.685 20.2577C176.929 22.4246 176.641 24.7389 175.678 25.9656C172.643 29.8303 167.337 20.2673 163.299 18.3803C157.938 15.8754 147.549 14.5771 133.537 18.0928C129.884 19.0092 127.73 20.8194 125.579 22.6808C122.087 25.7027 122.742 36.1404 121.82 42.0145C121.611 43.3462 121.614 44.982 121.026 45.6677C118.156 49.015 103.509 44.7913 94.2721 47.0562C89.1342 48.3159 88.6315 55.9268 86.4016 64.7455C84.0422 74.0766 80.3029 79.644 77.77 84.6815C77.1733 85.8681 77.0056 87.1015 76.9064 88.2476C76.2654 95.6602 86.3644 103.698 92.2409 110.901C96.0067 115.517 99.8432 117.378 102.045 119.059C102.992 119.783 103.009 121.138 102.728 122.32C101.459 127.658 97.43 132.176 93.0024 139.194C91.5001 141.576 90.8059 143.778 90.2928 146.395C88.9474 153.257 92.726 158.959 94.7749 163.046C96.9523 167.39 100.505 171.165 103.794 174.255C106.943 177.213 110.947 180.967 115.043 183.228C116.46 184.009 118.815 183.497 120.2 184.028C121.584 184.559 122.058 185.603 122.212 186.686C122.366 187.769 122.186 188.859 121.543 189.921C118.765 194.501 115.194 196.272 113.318 201.861C110.975 208.847 111.768 213.612 112.193 221.339C112.716 230.868 129.756 229.274 133.88 229.711C138.729 230.225 141.853 233.22 145.513 232.914C147.749 232.727 150.108 231.732 152.324 231.281C156.116 230.511 156.975 223.895 158.837 220.991C160.838 217.869 163.479 228.601 165.772 233.243C168.457 238.679 172.448 243.564 177.058 248.037C181.248 252.101 187.917 252.938 193.322 253.32C205.286 254.165 212.477 248.128 216.873 244.416C220.859 241.049 218.481 232.113 218.324 230.847C217.933 227.693 221.897 237.315 225.251 240.004C229.895 243.726 238.416 240.23 243.119 238.341C247.556 236.559 252.938 232.964 257.717 229.56C261.572 226.814 263.32 219.77 265.677 213.573C267.405 209.03 267.324 201.138 267.755 193.756C267.888 191.466 269.046 192.351 269.868 193.034C272.856 195.517 276.948 197.991 281.583 199.348C285.985 200.637 297.617 200.087 305.975 199.201C313.269 198.429 318.702 192.911 324.076 187.306C325.784 185.526 325.759 181.675 325.484 177.298C324.998 169.539 319.606 163.365 317.034 160.144C314.423 156.875 310.435 155.254 307.004 152.304C304.948 150.536 302.88 149.459 301.854 148.223C299.459 145.336 304.685 139.86 307.554 134.152C311.133 127.029 311.523 114.247 309.751 105.818C308.801 101.3 303.182 101.469 297.647 100.629C294.757 100.19 289.827 100.367 287.551 99.7464C285.274 99.1253 285.781 97.9955 286.557 96.726C289.757 91.4956 292.417 88.3147 294.012 83.874C295.848 78.7631 298.055 71.2613 298.832 63.9751C299.107 61.406 299.078 56.4408 298.809 50.184C298.655 46.6303 296.516 44.7502 294.664 43.0274C289.825 38.5268 280.15 41.6618 274.997 43.4767C273.791 43.9015 272.957 44.4317 272.375 44.052C268.504 41.5288 269.913 32.5909 266.304 27.7274C263.223 23.5754 260.078 17.9232 256.506 13.339C253.214 9.11379 238.384 10.0862 230.32 12.7498C228.68 13.2914 227.941 17.001 226.806 18.0343C225.67 19.0675 224.756 18.4023 224.102 17.5082C221.492 13.9388 218.268 10.2696 214.259 8.90937C207.376 6.57421 195.907 9.36325 192.432 11.4606C189.215 13.4022 186.628 26.2301 182.793 37.4722C182.171 39.2962 181.451 40.3776 181.028 40.3392C179.762 40.2242 180.21 35.5911 179.848 32.0307C179.338 27.0068 164.4 25.2407 155.786 23.7657C147.852 22.407 136.213 23.9295 128.122 28.1413C125.081 29.7248 123.539 31.6638 122.787 33.9467C121.344 38.326 121.615 43.4171 120.808 48.4046C119.493 56.534 104.025 50.0488 100.738 53.5258C97.6097 56.8348 95.4228 61.0607 92.7794 65.0504C89.3905 70.1651 88.3574 79.9965 86.5587 88.3907C83.6261 102.077 88.1538 108.965 92.1891 117.168C94.4689 121.802 98.0126 123.229 99.2913 124.929C104.763 132.206 87.7049 144.111 87.5147 146.398C86.7495 155.599 98.0516 170.297 104.825 177.646C109.165 182.355 116.962 184.079 121.998 187.554C135.684 197 111.606 207.348 111.396 213.239C111.194 218.918 115.663 225.282 119.132 230.084C122.082 234.168 128.463 237.339 136.528 240.609C145.625 244.298 159.215 240.067 163.462 236.681C165.228 235.273 165.077 230.758 165.174 227.669C165.278 224.348 167.641 236.063 171.084 239.91C174.566 243.801 190.618 243.01 204.786 241.159C210.876 240.364 214.372 237.278 215.159 235.036C216.649 230.798 216.657 227.424 216.869 226.677C218.319 221.568 222.125 236.467 226.42 239.652C232.423 244.103 243.014 242.639 252.589 239.842C259.556 237.807 261.587 231.454 263.558 226.462C267.78 215.768 265.728 201.231 268.705 199.063C276.653 193.275 292.1 201.037 304.443 200.954C314.41 200.887 322.12 197.877 327.339 196.383C332.833 194.811 335.634 190.453 338.195 186.547C339.955 183.861 340.022 180.409 339.811 177.994C339.399 173.273 336.275 169.717 333.869 165.919C330.634 160.812 326.1 156.169 322.17 153.709C318.644 151.503 311.534 147.873 305.054 145.074C303.921 144.585 302.983 144.317 302.922 143.435C302.497 137.288 310.287 131.449 312.808 124.491C315.586 116.821 314.241 108.626 312.16 102.997C309.224 95.0526 301.243 95.3925 295.704 93.5154C288.991 91.24 303.612 79.0229 306.998 73.3145C308.14 71.3896 308.159 68.3444 307.828 64.9615C307.182 58.3497 302.199 54.0025 297.84 49.9261C291.074 43.5983 286.38 42.982 280.565 41.6785C278.353 41.1825 275.182 41.4905 273.796 40.0685C271.011 37.2096 273.35 31.7007 272.814 29.28C271.294 22.4122 264.614 18.5822 259.929 12.8448C254.084 5.68846 243.227 3.96128 239.01 5.08491C235.078 6.13237 232.45 10.8794 229.591 12.86C226.813 14.7837 224.81 6.40572 221.245 3.3018C217.444 -0.00811536 210.396 0.998773 204.87 1.77672C199.049 2.59623 192.68 5.74883 182.548 11.6721C177.129 14.8399 173.897 18.6112 172.274 20.6909C170.64 22.7843 171.281 26.0354 170.886 27.6953C169.701 32.6683 160.592 25.8479 156.393 25.1605C152.383 24.5039 146.905 23.744 141.916 24.8924C137.42 25.9275 134.242 29.6985 131.435 33.8672C129.037 37.427 127.03 43.0873 124.839 47.195C121.55 53.3618 109.524 47.4815 103.933 49.8309C98.1244 52.2719 95.7951 56.4544 87.3687 64.1916C84.4119 66.9066 83.2198 69.262 82.518 73.4576C79.3929 92.1391 86.2891 105.292 88.9285 108.924C92.0957 113.283 95.777 115.156 98.7502 118.349C102.22 122.075 99.5741 128.046 98.889 132.683C98.1044 137.993 96.2912 144.348 94.0621 150.181C91.6644 156.455 91.5917 163.016 93.2074 167.869C94.9087 172.98 103.809 173.862 110.108 175.381C114.809 176.515 118.861 176.329 123.01 176.788C123.982 176.896 124.845 177.01 125.133 177.58C126.917 181.102 122.944 187.862 121.344 192.754C119.84 197.353 120.222 203.992 119.564 209.095C118.873 214.453 122.08 219.078 124.067 223.634C126.605 229.453 132.078 233.144 136.192 235.488C139.936 237.621 155.444 238.098 165.019 237.092C167.085 236.874 168.534 234.733 169.671 234.066C172.399 232.466 173.334 240.711 178.276 244.005C186.634 249.577 191.377 247.343 204.019 247.262C210.434 247.221 214.593 242.737 217.46 238.731C219.312 236.143 219.429 232.59 220.701 231.359C224.128 228.041 227.235 237.108 230.138 239.897C231.873 241.563 235.558 242.865 240.959 244.079C252.809 246.742 259.716 236.334 262.592 232.736C265.69 228.861 269.365 223.143 271.981 215.462C274.015 209.493 273.129 202.61 274.36 197.338C276.163 189.619 289.239 201.766 306.859 202.871C320.864 203.749 341.066 191.778 344.86 188.874C346.659 187.497 347.481 184.941 347.852 181.822C348.364 177.514 347.468 173.989 346.385 172.193C343.805 167.92 338.328 164.881 333.852 162.129C327.478 158.209 322.848 156.541 310.484 153.226C307.767 152.498 306.787 152.334 306.311 151.587C304.129 148.161 308.218 141.46 308.992 133.701C309.527 128.331 309.602 116.453 306.275 107.056C301.376 93.2177 292.469 97.9046 290.147 97.337C289.246 97.1168 289.357 95.6343 289.575 94.4745C290.571 89.1615 294.859 84.2012 297.05 78.9906C300.642 70.4494 298.589 60.2405 296.949 55.9151C294.454 49.334 285.422 43.2058 280.549 40.5328C278.924 39.6412 278.346 34.4098 277.993 27.5293C277.593 19.7134 267.683 16.9252 263.816 14.6766C259.772 12.3247 255.215 10.3593 244.587 8.03436C236.316 6.2252 230.51 8.06627 228.983 9.17269C228.243 9.70875 227.966 10.8312 227.578 10.8445C226.469 10.8824 225.307 7.68817 223.236 5.61094C218.58 0.94236 209.103 4.21616 202.303 6.99724C191.859 11.2691 185.638 15.3343 179.381 19.1497C174.098 22.372 170.638 23.4534 149.471 23.8017C139.962 23.9581 133.479 28.2132 129.676 32.8838C126.847 36.3587 127.271 41.5756 126.148 46.5899C125.876 47.8067 125.718 48.8432 124.406 48.9538C115.266 49.7243 108.174 44.3146 101.964 43.6138C86.2999 41.8464 81.6019 46.0382 77.5267 48.0711C76.5945 48.5361 75.9638 49.3681 75.4813 50.252C71.5767 57.4047 74.9527 72.4212 75.8508 77.2197C76.8557 82.5891 79.6847 88.5409 83.4307 96.9593C86.6793 104.26 88.4353 108.724 90.9281 112.873C91.5608 113.927 92.3879 114.799 92.4773 115.992C93.1198 124.577 88.1845 134.896 87.5622 141.591C86.7006 150.862 87.796 159.05 88.6593 162.895C90.0269 168.985 95.1254 171.13 98.8305 174.459C104.291 179.364 106.941 186.078 109.837 188.772C113.336 192.026 119.546 188.919 123.338 189.175C129.038 189.561 120.785 214.029 121.864 226.219C122.675 235.377 124.785 238.292 125.879 240C128.6 244.245 135.624 243.782 148.194 250.96C153.43 253.951 157.795 254.31 161.12 253.685C166.586 252.658 168.14 237.913 169.809 231.611C170.899 227.496 175.048 239.008 177.56 242.394C181.059 247.111 187.091 246.647 191.999 247.259C200.59 248.331 204.944 243.553 213.517 236.418C215.979 234.369 215.983 231.503 216.5 230.111C218.926 223.584 226.936 239.055 231.147 242.089C236.285 245.79 242.699 243.258 246.341 241.386C250.937 239.025 258.486 232.043 266.566 225.844C270.335 222.953 271.287 217.456 272.573 209.385C272.99 206.769 272.875 203.641 273.306 202.408C274.44 199.158 279.983 204.783 285.744 205.885C297.378 208.111 301.803 204.189 314.558 198.795C327.381 193.373 328.59 178.373 329.216 172.505C329.719 167.792 325.598 161.13 320.306 153.007C317.948 149.387 315.733 147.331 314.705 146.91C311.887 145.754 319.75 155.199 322.369 159.787C325.445 165.176 325.925 179.202 324.118 185.731C322.846 190.325 315.949 193.232 309.786 196.511C302.084 200.609 287.573 199.429 280.371 198.629C279.285 198.509 289.553 200.02 303.032 202.256C314.945 204.233 321.644 202.723 323.65 201.775C326.381 200.483 329.274 197.596 331.92 194.839C336.9 189.65 333.677 176.027 331.795 171.501C330.102 167.43 325.955 165.651 322.848 163.503C319.436 161.146 315.2 158.767 311.737 157.035C310.059 156.197 308.695 154.746 307.802 152.899C305.787 148.73 308.967 144.031 310.714 139.292C312.322 134.932 313.661 130.839 314.074 125.763C314.679 118.322 310.699 108.703 306.963 102.256C304.255 97.5826 296.651 99.1247 290.612 98.9887C288.925 98.9507 290.047 98.5807 291.083 98.2534C295.056 96.9972 299.254 96.3907 302.661 97.1522C307.393 98.2098 305.561 108.485 307.428 118.778C308.203 125.234 306.849 133.028 304.962 138.068C304.361 139.152 303.463 140.299 302.096 141.526" stroke="#FE9E62" stroke-width="2" stroke-linecap="round"/>
<path d="M195.309 278.452C194.918 278.452 179.518 278.452 155.863 278.55C136.076 278.632 111.07 294.379 103.196 300.666C98.6154 304.324 98.3843 314.341 99.5663 324.603C101.02 337.224 117.193 335.145 127.556 336.205C157.212 339.241 169.002 332.105 175.407 329.524C181.969 326.88 189.217 322.34 192.085 317.075C193.665 314.175 193.241 308.175 193 301.836C192.747 295.158 179.976 292.276 159.574 289.011C138.798 285.686 123.657 288.949 118.798 291.423C111.962 294.904 107.854 299.763 106.593 304.094C104.411 311.584 106.975 318.072 109.064 320.807C114.503 327.928 121.921 329.493 136.116 330.06C155.485 330.834 176.208 327.377 191.082 321.437C202.537 316.863 207.942 312.364 209.278 309.906C212.272 304.395 203.016 298.364 197.156 293.803C193.517 290.969 183.52 287.143 170.692 282.18C150.35 274.31 123.409 281.267 115.693 286.766C106.136 293.579 100.997 301.006 98.4705 308.368C97.4676 311.291 98.1707 315.954 98.7199 318.782C100.124 326.014 111.375 328.338 125.329 333.13C139.115 337.865 159.402 333.33 166.977 330.453C175.82 327.094 185.785 319.501 190.969 313.569C194.866 309.109 193.734 302.504 193.017 299.295C191.306 291.641 179.327 290.371 166.304 286.135C148.092 280.21 127.603 284.122 125.115 285.895C117.591 291.254 113.138 301.99 109.992 308.764C108.468 312.043 108.692 316.845 108.889 321.731C109.03 325.225 111.201 328.095 114.161 330.981C120.175 336.845 129.926 337.396 172.461 337.986C181.013 338.105 182.062 336.717 182.856 335.323C184.563 332.325 184.799 326.582 184.507 320.356C184.03 310.204 170.127 306.039 163.539 303.572C153.366 299.764 130.651 298.526 115.569 300.667C111.033 301.311 108.041 304.307 105.949 306.28C103.984 308.133 104.46 314.547 105.247 321.544C106.239 330.371 122.31 331.795 146.886 332.842C158.251 333.326 177.225 327.335 189.446 321.819C192.94 320.243 194.585 315.835 195.778 311.292C196.382 308.99 196.183 306.482 195.422 304.375C192.646 296.682 180.155 292.714 168.247 288.048C154.679 282.731 128.802 284.062 109.247 287.484C101.584 288.825 97.5411 294.995 94.1184 299.791C88.207 308.073 92.4827 317.906 93.3524 324.723C94.6407 334.822 117.08 335.493 139.68 336.56C150.02 337.048 159.331 332.184 166.739 329.418C172.524 327.258 177.458 322.381 180.136 315.834C181.644 312.147 181.046 306.778 180.476 303.573C179.651 298.942 176.225 297.195 172.999 295.429C165.37 291.251 141.388 291.53 123.909 293.632C117.072 294.454 112.313 299.79 107.864 304.102C102.498 309.304 102.726 318.126 103.359 326.311C105.257 330.378 108.22 332.352 111.444 334.12C113.008 334.908 114.428 335.476 118.131 336.062" stroke="#FE9E62" stroke-width="2" stroke-linecap="round"/>
<path d="M105.071 352.989C93.927 352.989 59.6468 355.746 46.2184 360.909C42.9494 362.165 41.2135 365.676 39.5475 368.798C38.1512 371.415 39.0611 374.912 40.1113 378.202C41.1135 381.341 43.6382 383.227 45.9783 384.851C54.4211 390.712 73.8619 390.191 87.5889 390.933C99.1642 391.559 114.752 390.447 120.603 386.506C123.266 384.713 124.227 381.53 124.823 378.328C126.381 369.955 119.915 360.566 115.938 353.486C114.877 351.596 112.748 349.644 110.871 348.197C107.471 345.575 90.3132 345.111 66.1628 347.07C56.9085 347.82 54.4697 353.691 52.8932 356.744C49.0864 364.114 48.5497 372.209 49.0108 379.111C49.294 383.351 53.6399 384.487 57.475 385.939C75.2583 392.671 105.077 386.476 114.229 383.403C116.877 382.513 118.243 379.142 119.33 376.111C120.577 372.639 119.125 369.022 117.444 365.858C112.279 356.135 103.588 351.472 97.8218 349.179C91.4289 346.637 70.1017 350.316 58.0248 354.378C55.1963 355.329 54.2261 362.23 53.0149 368.662C52.5373 371.198 53.8873 372.469 55.3831 373.466C63.6974 379.004 76.3155 380.775 89.1837 380.667C95.1547 380.616 98.6739 376.684 100.776 374.466C103.418 371.679 103.482 367.112 103.281 364.174C102.823 357.467 89.6715 355.891 75.1863 353.819C66.4219 352.565 60.389 353.758 57.1439 354.966C52.071 356.854 47.5529 361.826 44.1735 365.759C42.7573 367.407 42.5121 368.893 42.6891 370.415C43.5024 377.407 52.7852 381.287 66.3961 385.739C88.1118 392.842 106.021 386.819 112.213 383.05C113.563 382.228 114.269 380.966 114.695 379.356C115.651 375.739 114.678 371.927 113.13 368.512C108.579 358.471 96.7619 355.507 83.0874 353.189C72.2198 351.346 64.5541 354.047 62.3442 357.531C59.111 362.629 58.4102 371.042 57.6307 378.055C57.3103 380.937 59.0118 382.516 60.9084 383.622C68.9783 388.328 77.046 387.522 96.652 389.732C107.066 390.906 113.346 389.431 115.609 387.77C116.775 386.914 117.576 385.441 118.04 383.792C119.011 380.338 116.903 375.749 114.033 371.51C109.628 365.005 98.6779 360.409 91.9952 356.856C86.2662 353.809 76.7649 351.755 65.5643 349.863C55.7051 348.197 48.1805 350.511 45.6495 353.76C42.5832 357.695 41.8149 362.25 41.478 365.16C40.6003 372.745 53.0473 380.324 61.6418 384.594C69.3092 388.403 81.1851 385.19 87.2377 382.962C95.8559 379.79 106.728 371.826 110.382 366.714C112.292 364.042 111.762 360.003 111.063 356.586C109.47 348.806 92.1721 348.233 82.133 347.299C70.8966 346.253 54.6404 347.231 49.4585 352.001C48.1898 353.169 47.4796 354.582 47.0329 356.3C44.7548 365.058 54.7117 376.339 60.4636 382.308C71.3927 393.651 100.215 384.267 115.81 382.168C119.084 381.728 120.435 381.615 121.647 380.789C124.262 379.008 125.132 372.709 124.781 365.369C124.336 356.052 112.885 351.998 102.961 348.604C89.6916 344.065 68.6907 349.751 63.493 355.782C58.874 361.141 60.0731 368.955 60.516 374.893C61.4011 386.759 89.7605 389.252 106.472 390.715C114.49 391.417 120.958 381.543 123.79 375.968C124.496 374.578 124.324 372.728 123.848 371.074C120.095 365.291 116.591 362.443 113.041 360.744C110.823 359.888 107.757 359.043 104.599 358.173" stroke="#FE9E62" stroke-width="2" stroke-linecap="round"/>
<path d="M27.7044 403.572C27.5077 403.572 25.4441 403.572 21.9881 404.043C15.5397 404.92 14.5082 415.616 14.6522 418.543C14.7957 421.456 17.1801 423.8 19.3007 425.934C24.5167 431.181 33.9839 429.745 40.2833 429.52C47.3835 429.268 48.9014 419.236 49.5295 416.357C49.8371 414.947 49.392 413.504 48.5281 412.151C44.2777 405.492 36.4168 402.621 29.4506 399.503C26.5274 398.195 23.3921 398.295 19.8547 399.112C15.2557 400.175 12.0683 404 9.64441 406.073C8.38125 407.154 7.86966 409.263 7.50146 411.821C7.13325 414.379 7.13325 417.57 9.44963 420.374C15.0855 427.196 22.3768 428.326 24.9319 428.919C27.6815 429.557 30.8296 427.678 33.7028 425.453C36.1192 423.582 37.3603 420.479 38.0508 417.049C38.6726 413.96 37.3036 410.011 35.1682 405.953C33.4203 402.631 23.0675 402.039 9.89317 402.668C4.99104 402.903 3.89423 405.15 3.30561 409.005C1.82573 418.697 3.63502 426.108 6.09235 428.179C16.3612 436.831 34.3588 429.574 37.1173 427.396C40.1547 424.998 40.0789 419.527 39.8518 415.09C39.6525 411.195 37.9504 408.142 36.1562 405.623C29.8462 396.765 12.9798 402.455 10.7155 403.991C4.82298 407.987 7.37667 421.156 8.2701 426.758C9.73997 435.973 31.5962 431.214 39.1417 427.67C42.5985 426.046 41.8445 420.001 41.9586 416.695C42.0141 415.087 41.1515 413.663 39.087 412.505C28.3275 406.472 13.7417 408.079 6.03137 411.308C3.46722 412.381 4.70406 418.287 4.93029 422.967C5.10658 426.614 7.08661 429.833 9.22159 432.784C10.9895 435.228 14.9013 435.159 18.6816 434.841C21.639 434.591 24.3398 432.351 27.2102 430.256C29.9193 428.28 30.2945 422.867 29.99 417.616C29.5748 410.457 19.8993 406.998 12.7952 404.542C10.47 403.739 6.91169 404.282 4.96504 405.096C-2.76153 408.325 2.88544 424.536 4.59765 427.187C6.59249 430.275 18.984 429.833 34.6451 428.935C43.4464 428.43 46.4434 423.402 48.1962 420.48C50.7596 416.206 50.6998 409.081 49.9866 403.158C49.5345 399.403 37.2681 399.473 22.3171 400.595C14.1791 403.962 10.6522 407.872 8.64606 411.042C7.80061 412.613 7.30553 414.11 6.79545 416.972" stroke="#FE9E62" stroke-width="2" stroke-linecap="round"/>
<path d="M245.157 118.49C246.935 118.49 248.712 118.49 248.846 118.456C248.98 118.421 247.417 118.352 247.682 118.813C247.947 119.273 250.087 120.266 250.906 120.89C251.725 121.514 251.159 121.739 250.233 121.698C249.306 121.658 248.036 121.345 248.114 121.059C249.39 116.38 255.855 120.427 257.278 120.733C257.962 120.878 258.569 121.003 257.51 121.096C256.452 121.188 253.708 121.244 250.069 120.955" stroke="#FE9E62" stroke-width="2" stroke-linecap="round"/>
<path d="M245.457 99.2527C245.639 99.2527 247.417 99.2527 249.659 99.3151C249.838 99.32 246.135 100.461 242.167 101.746C240.085 102.42 250.844 100.066 255.077 98.6631C254.106 98.3743 252.212 98.5768 250.822 99.0323C250.156 99.2264 249.567 99.3452 248.804 99.6385" stroke="#FE9E62" stroke-width="2" stroke-linecap="round"/>
<path d="M241.052 79.769C241.737 79.4597 244.097 78.201 247.339 76.8994C248.103 76.5927 248.745 76.5226 248.663 76.5596C246.351 77.6072 243.803 78.7824 241.978 79.6559C240.29 80.464 245.354 76.9145 246.969 75.9017C246.314 76.2003 245.029 77.1653 243.719 78.3282C243.049 78.8527 242.37 79.2441 240.58 80.4915" stroke="#FE9E62" stroke-width="2" stroke-linecap="round"/>
<path d="M226.954 58.4211C226.551 59.0355 225.159 61.4588 223.448 63.2701C221.487 65.3462 226.425 59.3534 226.637 58.7631C226.913 57.998 225.433 60.7094 224.996 61.3162C223.86 62.8917 226.904 57.7261 227.256 56.955C226.788 57.3588 226.037 58.5344 225.446 59.9142C225.151 60.6344 224.866 61.3949 224.422 62.4271" stroke="#FE9E62" stroke-width="2" stroke-linecap="round"/>
<path d="M204.223 53.1566C204.223 52.849 204.223 46.3079 204.223 39.7282C204.223 39.5311 204.223 45.7129 204.248 47.3947C204.274 49.0766 204.324 46.0711 204.351 45.5018C204.377 44.9324 204.377 46.8901 204.377 48.9072" stroke="#FE9E62" stroke-width="2" stroke-linecap="round"/>
<path d="M171.604 50.6759C171.604 52.0327 172.693 56.2308 174.088 58.1554C175.427 60.0021 171.833 53.3343 168.695 49.8555C167.562 48.4468 169.902 51.6397 173.104 55.9733C173.547 56.5153 171.59 53.6927 168.901 49.8498" stroke="#FE9E62" stroke-width="2" stroke-linecap="round"/>
<path d="M152.573 68.9786C153.269 68.9786 155.592 69.1153 156.194 69.2767C159.688 70.2147 148.175 65.3132 147.692 64.8825C146.235 63.5836 152.819 67.0093 155.618 68.5303C156.176 68.8392 156.725 69.1374 157.249 69.4902C157.774 69.8429 158.257 70.2411 158.331 71.1641" stroke="#FE9E62" stroke-width="2" stroke-linecap="round"/>
<path d="M152.343 94.7391C151.204 94.8945 148.215 95.0372 147.974 95.2534C146.419 96.6517 153.058 95.5739 155.601 95.9823C157.316 96.2121 152.538 96.3389 145.367 96.3983C143.634 96.4013 145.768 96.3491 147.967 96.2954" stroke="#FE9E62" stroke-width="2" stroke-linecap="round"/>
<path d="M155.816 116.16C152.895 116.234 146.623 116.632 144.395 117.006C142.566 117.313 147.424 117.133 155.204 117.133C155.497 117.133 152.839 117.22 150.961 117.388C149.918 117.469 148.693 117.544 147.431 117.791" stroke="#FE9E62" stroke-width="2" stroke-linecap="round"/>
<path d="M160.495 134.488C160.403 134.488 159.825 134.81 158.719 135.634C158.143 136.138 157.536 136.814 156.577 137.792C155.618 138.771 154.324 140.031 153.887 140.68" stroke="#FE9E62" stroke-width="2" stroke-linecap="round"/>
<path d="M154.708 140.294C154.708 140.395 153.325 141.889 151.381 143.732C150.875 144.212 151.126 143.447 151.531 142.817C151.936 142.187 152.432 141.632 153.198 140.837C153.964 140.041 154.986 139.022 157.223 137.624" stroke="#FE9E62" stroke-width="2" stroke-linecap="round"/>
<path d="M171.352 112.027C171.352 109.943 171.134 105.269 171.135 97.5925C171.135 93.6095 174.358 90.5242 177.221 87.9316C179.311 86.0386 182.295 83.434 184.898 81.3246C185.923 80.4938 187.121 79.9289 187.577 79.4989C190.208 77.0154 180.042 82.9661 177.595 84.8045C175.171 86.626 173.756 90.9822 172.405 93.61C171.124 96.1026 171.298 105.775 172.141 112.411C172.871 118.151 173.673 95.0255 175.819 91.1758C178.339 88.3868 183.514 85.5469 187.549 82.9043C188.425 82.4738 189.189 82.3533 190.593 82.2292" stroke="#FE9E62" stroke-width="2" stroke-linecap="round"/>
</svg>
