<svg width="103" height="76" viewBox="0 0 103 76" fill="none" xmlns="http://www.w3.org/2000/svg">
<path d="M101.573 1.21362C99.4398 2.08338 93.8745 5.43887 87.9613 8.22101C81.0184 11.4877 72.6158 12.7045 65.3528 14.0123C58.9571 15.1639 43.8563 15.943 33.7021 13.6522C32.1634 13.3051 31.0788 11.8959 30.146 10.6663C29.2132 9.43678 28.6846 7.90632 29.1687 6.80136C30.2309 4.37659 36.487 4.41104 42.6974 5.04215C45.2119 5.29768 46.1625 6.9355 46.8169 8.34308C48.1078 11.1197 47.9999 15.0467 47.6153 19.1037C46.9868 25.7336 40.8948 30.2182 37.7058 35.653C34.4741 41.1603 30.9921 46.3332 26.6515 51.9956C20.5882 59.9053 14.3969 63.6946 9.01887 67.8145C6.3294 69.8748 3.31011 71.3619 1.917 72.8061C0.523008 74.2512 6.94949 74.8745 9.12708 74.9187C10.5704 74.948 4.07104 74.1578 1.04395 73.2043C0.679389 67.8951 2.67966 63.6625 3.46461 62.2265C3.59872 62.2361 3.19638 63.7449 2.78185 66.0883" stroke="#FE9E62" stroke-width="2" stroke-linecap="round"/>
</svg>
