<svg width="137" height="34" viewBox="0 0 137 34" fill="none" xmlns="http://www.w3.org/2000/svg">
<path d="M135.563 1.30597C130.885 1.30597 117.733 2.54059 110.809 4.12116C104.355 5.59423 97.8203 6.81126 91.2061 8.10143C84.6643 9.37747 67.6165 12.7306 54.751 15.9993C48.0573 17.7 41.492 19.301 34.4638 20.9627C27.9015 22.5143 21.2712 24.9783 14.8514 26.5214C8.47278 28.0547 3.66071 28.5528 2.27758 29.2627C0.609635 30.1188 9.97856 30.1186 14.5198 30.1186C17.7314 30.1186 5.95371 29.9864 3.7402 29.09C2.87121 28.7381 3.83224 26.9333 4.9404 25.7536C9.58265 20.8112 14.4148 19.0389 15.5283 17.3336C18.1507 13.3178 6.1174 23.0242 2.17284 26.5687C3.57919 27.8789 6.74051 28.6411 10.0854 29.0986C11.7382 29.426 13.3002 29.9467 19.0333 32.3538" stroke="#FE9E62" stroke-width="2" stroke-linecap="round"/>
</svg>
