<svg width="229" height="51" viewBox="0 0 229 51" fill="none" xmlns="http://www.w3.org/2000/svg">
<path d="M227.764 49.5258C226.083 49.0392 215.055 43.9942 205.945 39.0299C200.19 35.8934 177.565 29.5552 164.953 26.5822C159.942 25.4011 153.249 24.228 147.175 23.0855C141.937 22.1002 134.39 21.6408 126.814 20.4894C121.092 19.6198 112.864 18.6132 106.823 18.0977C101.666 17.6577 95.8611 16.8341 89.5227 16.2284C84.3319 15.7323 78.8311 15.2812 70.8341 14.7379C63.9087 14.2675 57.5593 13.4427 47.7577 12.9733C16.928 11.4968 11.2195 13.2245 6.02034 13.9539C4.37409 14.1848 2.21613 14.2265 1.56526 14.7053C0.914391 15.184 1.82807 16.0325 2.84898 16.6043C6.89717 18.8715 10.6563 19.1621 11.7533 19.4936C15.2066 20.5372 4.86132 17.5477 3.14042 16.2642C2.29718 15.6352 2.20867 14.3218 2.45377 13.2107C3.45761 11.044 4.80696 8.99206 5.99856 7.04873C6.62255 6.06977 7.28572 5.10541 9.67147 1.25098" stroke="#FE9E62" stroke-width="2" stroke-linecap="round"/>
</svg>
