<svg width="258" height="48" viewBox="0 0 258 48" fill="none" xmlns="http://www.w3.org/2000/svg">
<path d="M256.245 46.2253C255.245 45.561 250.066 42.6656 245.947 40.8631C242.859 39.512 238.818 37.941 235.555 37.0485C232.023 36.0828 227.759 34.6057 223.28 33.134C219.092 31.7577 213.933 30.4111 210.198 29.5868C206.155 28.6948 201.458 27.6932 198.292 27.1467C195.151 26.6043 185.069 24.5684 177.184 23.1451C173.349 22.4526 168.371 22.2321 165.166 21.9076C162.174 21.6047 158.856 21.5067 155.267 21.2142C152.824 21.0151 143.289 21.0892 130.216 21.0614C119.252 21.0381 111.49 25.1249 107.771 26.8325C104.301 28.4261 99.671 33.1658 97.0082 36.5147C96.1172 37.6352 96.2952 39.5285 96.5019 41.2804C96.6722 42.7235 98.1456 43.6219 99.3619 44.4559C100.5 45.2364 103.441 45.3094 107.057 45.0766C109.163 44.941 110.331 43.0744 111.588 41.4538C112.709 40.0094 113.006 37.3136 112.813 34.2468C112.605 30.9356 109.494 29.0982 106.508 26.7059C103.034 23.9232 97.5372 21.5012 86.8677 17.9887C81.5253 16.23 76.9893 15.1392 73.3029 14.4898C69.365 13.796 64.3901 13.3177 61.4983 13.0054C58.2056 12.6499 53.6591 12.4272 50.1408 12.0115C46.1339 11.5379 42.5288 11.4032 33.8457 11.1156C9.62852 10.3133 5.06548 11.4645 2.15429 11.9979C-1.42668 12.654 9.0358 16.7457 9.54036 17.2667C10.9725 18.7454 4.83276 14.3124 2.57841 12.5808C-0.322463 10.3526 7.73893 7.41508 9.7401 5.52879C10.7704 4.58993 11.9102 3.69703 13.1747 2.86599C13.8409 2.45446 14.5566 2.06361 15.9888 1.1319" stroke="#FE9E62" stroke-width="2" stroke-linecap="round"/>
</svg>
